<svg xmlns="http://www.w3.org/2000/svg" xmlns:xlink="http://www.w3.org/1999/xlink" width="215" height="84" viewBox="0 0 215 84">
    <defs>
        <path id="a" d="M.2 70.85h46.246V.167H.2V70.85zM8.697 9.043H37.95v52.93H8.697V9.043z"/>
        <linearGradient id="b" x1="25%" x2="75%" y1="25%" y2="75%">
            <stop offset="0%" stop-color="#00DC9A"/>
            <stop offset="100%" stop-color="#00EEE7"/>
        </linearGradient>
        <path id="d" d="M.2.216h46.246V8.78H.2z"/>
        <linearGradient id="e" x1="25.001%" x2="75%" y1="25.002%" y2="75%">
            <stop offset="0%" stop-color="#00DC9A"/>
            <stop offset="100%" stop-color="#00EEE7"/>
        </linearGradient>
    </defs>
    <g fill="none" fill-rule="evenodd">
        <path fill="#FFFFFF" fill-rule="nonzero" d="M85.036 44.254c0-4.008-2.823-6.661-6.493-6.661-3.669 0-6.492 2.653-6.492 6.661 0 4.008 2.823 6.661 6.492 6.661 3.67 0 6.493-2.653 6.493-6.66m-21.453 0c0-8.412 6.662-14.906 14.96-14.906 8.3 0 14.961 6.494 14.961 14.905 0 8.412-6.662 14.904-14.96 14.904-8.3 0-14.96-6.492-14.96-14.904M31.55 20.817h8.468v28.228h-8.469zM27.412 20.817v28.228h-8.469v-2.653c-1.524 2.089-4.347 3.443-8.072 3.443C5.169 49.835.313 45.77.313 38.149V20.817h8.469v16.09c0 3.5 2.201 5.138 4.91 5.138 3.106 0 5.251-1.807 5.251-5.815V20.817h8.469zM128.081 20.817v28.228h-8.468v-2.653c-1.525 2.089-4.347 3.443-8.074 3.443-5.701 0-10.556-4.065-10.556-11.686V20.817h8.468v16.09c0 3.5 2.202 5.138 4.912 5.138 3.104 0 5.25-1.807 5.25-5.815V20.817h8.468zM150.69 49.045l-5.252-7.452-5.25 7.452h-9.71l10.106-14.34-9.767-13.888h9.71l4.911 7.001 4.912-7h9.711l-9.767 13.887 10.105 14.34zM168.573 46.54c0 1.437-1.25 2.049-2.6 2.049-1.248 0-2.198-.475-2.686-1.487l1.624-.924c.163.474.513.737 1.063.737.45 0 .674-.138.674-.388 0-.687-3.073-.324-3.073-2.486 0-1.362 1.15-2.05 2.448-2.05 1.013 0 1.912.45 2.437 1.338l-1.6.862c-.174-.325-.424-.55-.837-.55-.324 0-.524.126-.524.35 0 .712 3.074.238 3.074 2.55M173.88 45.29c0-.886-.624-1.474-1.436-1.474-.812 0-1.437.588-1.437 1.474 0 .888.625 1.475 1.437 1.475s1.437-.587 1.437-1.475m-4.748 0c0-1.862 1.474-3.298 3.311-3.298 1.836 0 3.311 1.436 3.311 3.298 0 1.863-1.475 3.299-3.31 3.299-1.838 0-3.312-1.436-3.312-3.299M176.814 39.293h1.875v9.12h-1.875zM185.971 42.167v6.248h-1.874v-.588c-.337.462-.962.762-1.787.762-1.262 0-2.337-.9-2.337-2.587v-3.835h1.875v3.56c0 .776.487 1.138 1.087 1.138.687 0 1.162-.4 1.162-1.287v-3.411h1.874zM189.717 43.966v2.212c0 .537.462.587 1.287.537v1.7c-2.449.249-3.162-.489-3.162-2.237v-2.212h-.999v-1.8h1V40.98l1.874-.562v1.749h1.287v1.799h-1.287zM192.064 42.167h1.874v6.248h-1.874v-6.248zm-.188-1.675c0-.611.513-1.124 1.125-1.124s1.125.513 1.125 1.124c0 .613-.513 1.125-1.125 1.125a1.136 1.136 0 0 1-1.125-1.125zM199.747 45.29c0-.886-.625-1.474-1.437-1.474s-1.437.588-1.437 1.474c0 .888.625 1.475 1.437 1.475s1.437-.587 1.437-1.475m-4.748 0c0-1.862 1.474-3.298 3.311-3.298 1.836 0 3.31 1.436 3.31 3.298 0 1.863-1.474 3.299-3.31 3.299-1.837 0-3.311-1.436-3.311-3.299M208.678 44.578v3.836h-1.874v-3.56c0-.775-.488-1.138-1.087-1.138-.688 0-1.163.4-1.163 1.287v3.41h-1.874v-6.246h1.874v.587c.338-.463.963-.762 1.787-.762 1.262 0 2.337.9 2.337 2.586M214.81 46.54c0 1.437-1.25 2.049-2.6 2.049-1.248 0-2.198-.475-2.685-1.487l1.623-.924c.163.474.513.737 1.063.737.45 0 .674-.138.674-.388 0-.687-3.073-.324-3.073-2.486 0-1.362 1.15-2.05 2.449-2.05 1.012 0 1.911.45 2.436 1.338l-1.6.862c-.174-.325-.424-.55-.836-.55-.325 0-.525.126-.525.35 0 .712 3.074.238 3.074 2.55"/>
        <g transform="translate(49.408 .497)">
            <mask id="c" fill="#fff">
                <use xlink:href="#a"/>
            </mask>
            <path fill="url(#b)" fill-rule="nonzero" d="M23.323-22.956l58.465 58.464-58.465 58.464-58.464-58.464z" mask="url(#c)"/>
        </g>
        <g transform="translate(49.408 74.842)">
            <mask id="f" fill="#fff">
                <use xlink:href="#d"/>
            </mask>
            <path fill="url(#e)" fill-rule="nonzero" d="M23.323-22.907L50.73 4.498 23.323 31.903-4.082 4.498z" mask="url(#f)"/>
        </g>
        <path fill="#FFFFFF" fill-rule="nonzero" d="M62.022 41.434c-2.548.002-3.947-.51-3.947-2.495v-9.992h5.815v-8.13h-5.815v-7.904l-8.468 2.54v5.364H45.09v8.13h4.517v9.992c0 7.552 2.942 10.926 12.854 10.227-.838-2.553-.694-5.646-.439-7.732"/>
    </g>
</svg>
